<?xml version="1.0" standalone="no"?>
<!DOCTYPE svg PUBLIC "-//W3C//DTD SVG 20010904//EN"
 "http://www.w3.org/TR/2001/REC-SVG-20010904/DTD/svg10.dtd">
<svg version="1.0" xmlns="http://www.w3.org/2000/svg"
 width="252.000000pt" height="252.000000pt" viewBox="0 0 252.000000 252.000000"
 preserveAspectRatio="xMidYMid meet">
<metadata>
Created by potrace 1.11, written by Peter Selinger 2001-2013
</metadata>
<g transform="translate(0.000000,252.000000) scale(0.100000,-0.100000)"
fill="#000000" stroke="none">
<path d="M375 1990 l-200 -200 38 0 37 0 0 -495 0 -495 630 0 630 0 67 134 66
133 -131 257 c-73 141 -132 261 -132 267 0 6 26 9 68 7 l67 -3 96 -195 97
-195 35 75 c19 41 60 129 90 195 l55 120 66 3 c41 2 66 -1 66 -8 0 -5 -81
-180 -181 -388 -99 -207 -183 -383 -186 -390 -4 -9 61 -12 306 -12 l311 0 0
494 0 494 37 7 36 7 -193 193 -194 194 -177 -170 -177 -169 -166 172 -167 172
-174 -174 -175 -175 -173 173 -172 172 -200 -200z m477 -390 c20 -6 51 -24 68
-40 l31 -29 20 20 c80 80 238 74 299 -11 39 -55 50 -128 50 -343 l0 -198 -62
3 -63 3 -5 221 c-5 200 -7 224 -24 243 -28 31 -105 29 -135 -3 -34 -36 -40
-83 -41 -283 l0 -183 -59 0 -59 0 -3 214 c-4 199 -6 217 -25 243 -16 21 -31
29 -62 31 -99 7 -114 -30 -120 -290 l-4 -198 -59 0 -59 0 0 300 0 300 60 0
c53 0 60 -2 60 -20 0 -22 15 -27 26 -9 20 33 101 47 166 29z"/>
</g>
</svg>
